<mxfile host="65bd71144e" modified="2020-10-12T22:37:14.413Z" agent="5.0 (Windows NT 10.0; Win64; x64) AppleWebKit/537.36 (KHTML, like Gecko) Code/1.50.0 Chrome/83.0.4103.122 Electron/9.2.1 Safari/537.36" version="13.6.5" etag="B4cty1XcKBydS6paLaDu" pages="2">
    <diagram id="exn9D95jNHyNveebr-l9" name="Page-1">
        <mxGraphModel dx="380" dy="226" grid="1" gridSize="10" guides="1" tooltips="1" connect="1" arrows="1" fold="1" page="1" pageScale="1" pageWidth="827" pageHeight="1169" math="0" shadow="0">
            <root>
                <mxCell id="0"/>
                <mxCell id="1" parent="0"/>
                <mxCell id="2" value="Classname" style="swimlane;fontStyle=1;align=center;verticalAlign=top;childLayout=stackLayout;horizontal=1;startSize=26;horizontalStack=0;resizeParent=1;resizeParentMax=0;resizeLast=0;collapsible=1;marginBottom=0;" vertex="1" parent="1">
                    <mxGeometry x="270" y="140" width="160" height="112" as="geometry"/>
                </mxCell>
                <mxCell id="3" value="- system: System" style="text;strokeColor=none;fillColor=none;align=left;verticalAlign=top;spacingLeft=4;spacingRight=4;overflow=hidden;rotatable=0;points=[[0,0.5],[1,0.5]];portConstraint=eastwest;" vertex="1" parent="2">
                    <mxGeometry y="26" width="160" height="26" as="geometry"/>
                </mxCell>
                <mxCell id="6" value="- weightCenter: Vector3" style="text;strokeColor=none;fillColor=none;align=left;verticalAlign=top;spacingLeft=4;spacingRight=4;overflow=hidden;rotatable=0;points=[[0,0.5],[1,0.5]];portConstraint=eastwest;" vertex="1" parent="2">
                    <mxGeometry y="52" width="160" height="26" as="geometry"/>
                </mxCell>
                <mxCell id="4" value="" style="line;strokeWidth=1;fillColor=none;align=left;verticalAlign=middle;spacingTop=-1;spacingLeft=3;spacingRight=3;rotatable=0;labelPosition=right;points=[];portConstraint=eastwest;" vertex="1" parent="2">
                    <mxGeometry y="78" width="160" height="8" as="geometry"/>
                </mxCell>
                <mxCell id="5" value="+ method(type): type" style="text;strokeColor=none;fillColor=none;align=left;verticalAlign=top;spacingLeft=4;spacingRight=4;overflow=hidden;rotatable=0;points=[[0,0.5],[1,0.5]];portConstraint=eastwest;" vertex="1" parent="2">
                    <mxGeometry y="86" width="160" height="26" as="geometry"/>
                </mxCell>
            </root>
        </mxGraphModel>
    </diagram>
    <diagram id="iE9Q7EgRRRHPWen0aIjd" name="object">
        <mxGraphModel dx="665" dy="396" grid="1" gridSize="10" guides="1" tooltips="1" connect="1" arrows="1" fold="1" page="1" pageScale="1" pageWidth="827" pageHeight="1169" math="0" shadow="0">
            <root>
                <mxCell id="F4oK7eHRLu9qCu0cn15Q-0"/>
                <mxCell id="F4oK7eHRLu9qCu0cn15Q-1" parent="F4oK7eHRLu9qCu0cn15Q-0"/>
                <mxCell id="F4oK7eHRLu9qCu0cn15Q-2" value="&lt;p style=&quot;margin: 0px ; margin-top: 4px ; text-align: center ; text-decoration: underline&quot;&gt;&lt;b&gt;Atomic: Mesh&lt;/b&gt;&lt;/p&gt;&lt;hr&gt;&lt;p style=&quot;margin: 0px ; margin-left: 8px&quot;&gt;name: string&lt;/p&gt;" style="verticalAlign=top;align=left;overflow=fill;fontSize=12;fontFamily=Helvetica;html=1;" vertex="1" parent="F4oK7eHRLu9qCu0cn15Q-1">
                    <mxGeometry x="190" y="370" width="160" height="90" as="geometry"/>
                </mxCell>
                <mxCell id="F4oK7eHRLu9qCu0cn15Q-14" style="edgeStyle=orthogonalEdgeStyle;rounded=0;orthogonalLoop=1;jettySize=auto;html=1;entryX=0.5;entryY=1;entryDx=0;entryDy=0;" edge="1" parent="F4oK7eHRLu9qCu0cn15Q-1" source="F4oK7eHRLu9qCu0cn15Q-4" target="F4oK7eHRLu9qCu0cn15Q-13">
                    <mxGeometry relative="1" as="geometry"/>
                </mxCell>
                <mxCell id="F4oK7eHRLu9qCu0cn15Q-4" value="&lt;p style=&quot;margin: 0px ; margin-top: 4px ; text-align: center ; text-decoration: underline&quot;&gt;&lt;b&gt;gatomics: Group&lt;/b&gt;&lt;/p&gt;&lt;hr&gt;&lt;p style=&quot;margin: 0px ; margin-left: 8px&quot;&gt;field1 = value1&lt;br&gt;field2 = value2&lt;br&gt;field3 = value3&lt;/p&gt;" style="verticalAlign=top;align=left;overflow=fill;fontSize=12;fontFamily=Helvetica;html=1;" vertex="1" parent="F4oK7eHRLu9qCu0cn15Q-1">
                    <mxGeometry x="190" y="220" width="160" height="90" as="geometry"/>
                </mxCell>
                <mxCell id="F4oK7eHRLu9qCu0cn15Q-5" style="edgeStyle=orthogonalEdgeStyle;rounded=0;orthogonalLoop=1;jettySize=auto;html=1;entryX=0.5;entryY=1;entryDx=0;entryDy=0;" edge="1" parent="F4oK7eHRLu9qCu0cn15Q-1" source="F4oK7eHRLu9qCu0cn15Q-2" target="F4oK7eHRLu9qCu0cn15Q-4">
                    <mxGeometry relative="1" as="geometry">
                        <Array as="points">
                            <mxPoint x="270" y="310"/>
                        </Array>
                    </mxGeometry>
                </mxCell>
                <mxCell id="F4oK7eHRLu9qCu0cn15Q-6" value="0. *" style="edgeLabel;html=1;align=center;verticalAlign=middle;resizable=0;points=[];" vertex="1" connectable="0" parent="F4oK7eHRLu9qCu0cn15Q-5">
                    <mxGeometry x="0.2775" relative="1" as="geometry">
                        <mxPoint x="-10" y="28.290000000000003" as="offset"/>
                    </mxGeometry>
                </mxCell>
                <mxCell id="F4oK7eHRLu9qCu0cn15Q-7" value="1" style="edgeLabel;html=1;align=center;verticalAlign=middle;resizable=0;points=[];" vertex="1" connectable="0" parent="F4oK7eHRLu9qCu0cn15Q-5">
                    <mxGeometry x="0.1113" y="1" relative="1" as="geometry">
                        <mxPoint x="-9" y="-16.86" as="offset"/>
                    </mxGeometry>
                </mxCell>
                <mxCell id="F4oK7eHRLu9qCu0cn15Q-10" style="edgeStyle=orthogonalEdgeStyle;rounded=0;orthogonalLoop=1;jettySize=auto;html=1;entryX=0.5;entryY=1;entryDx=0;entryDy=0;" edge="1" parent="F4oK7eHRLu9qCu0cn15Q-1" source="F4oK7eHRLu9qCu0cn15Q-8" target="F4oK7eHRLu9qCu0cn15Q-9">
                    <mxGeometry relative="1" as="geometry"/>
                </mxCell>
                <mxCell id="F4oK7eHRLu9qCu0cn15Q-11" value="1" style="edgeLabel;html=1;align=center;verticalAlign=middle;resizable=0;points=[];" vertex="1" connectable="0" parent="F4oK7eHRLu9qCu0cn15Q-10">
                    <mxGeometry x="0.2295" y="-1" relative="1" as="geometry">
                        <mxPoint x="-11" y="-13.06" as="offset"/>
                    </mxGeometry>
                </mxCell>
                <mxCell id="F4oK7eHRLu9qCu0cn15Q-12" value="*" style="edgeLabel;html=1;align=center;verticalAlign=middle;resizable=0;points=[];" vertex="1" connectable="0" parent="F4oK7eHRLu9qCu0cn15Q-10">
                    <mxGeometry x="-0.2463" relative="1" as="geometry">
                        <mxPoint x="-10" y="12.5" as="offset"/>
                    </mxGeometry>
                </mxCell>
                <mxCell id="F4oK7eHRLu9qCu0cn15Q-8" value="&lt;p style=&quot;margin: 0px ; margin-top: 4px ; text-align: center ; text-decoration: underline&quot;&gt;&lt;b&gt;Bond: Mesh&lt;/b&gt;&lt;/p&gt;&lt;hr&gt;&lt;p style=&quot;margin: 0px ; margin-left: 8px&quot;&gt;name: string&lt;/p&gt;" style="verticalAlign=top;align=left;overflow=fill;fontSize=12;fontFamily=Helvetica;html=1;" vertex="1" parent="F4oK7eHRLu9qCu0cn15Q-1">
                    <mxGeometry x="420" y="370" width="160" height="90" as="geometry"/>
                </mxCell>
                <mxCell id="F4oK7eHRLu9qCu0cn15Q-15" style="edgeStyle=orthogonalEdgeStyle;rounded=0;orthogonalLoop=1;jettySize=auto;html=1;entryX=0.5;entryY=1;entryDx=0;entryDy=0;" edge="1" parent="F4oK7eHRLu9qCu0cn15Q-1" source="F4oK7eHRLu9qCu0cn15Q-9" target="F4oK7eHRLu9qCu0cn15Q-13">
                    <mxGeometry relative="1" as="geometry"/>
                </mxCell>
                <mxCell id="F4oK7eHRLu9qCu0cn15Q-9" value="&lt;p style=&quot;margin: 0px ; margin-top: 4px ; text-align: center ; text-decoration: underline&quot;&gt;&lt;b&gt;gbonds: Group&lt;/b&gt;&lt;/p&gt;&lt;hr&gt;&lt;p style=&quot;margin: 0px ; margin-left: 8px&quot;&gt;field1 = value1&lt;br&gt;field2 = value2&lt;br&gt;field3 = value3&lt;/p&gt;" style="verticalAlign=top;align=left;overflow=fill;fontSize=12;fontFamily=Helvetica;html=1;" vertex="1" parent="F4oK7eHRLu9qCu0cn15Q-1">
                    <mxGeometry x="420" y="220" width="160" height="90" as="geometry"/>
                </mxCell>
                <mxCell id="F4oK7eHRLu9qCu0cn15Q-13" value="&lt;p style=&quot;margin: 0px ; margin-top: 4px ; text-align: center ; text-decoration: underline&quot;&gt;&lt;b&gt;scene : Scene&lt;/b&gt;&lt;/p&gt;&lt;hr&gt;&lt;p style=&quot;margin: 0px ; margin-left: 8px&quot;&gt;field1 = value1&lt;br&gt;field2 = value2&lt;br&gt;field3 = value3&lt;/p&gt;" style="verticalAlign=top;align=left;overflow=fill;fontSize=12;fontFamily=Helvetica;html=1;" vertex="1" parent="F4oK7eHRLu9qCu0cn15Q-1">
                    <mxGeometry x="290" y="40" width="160" height="90" as="geometry"/>
                </mxCell>
            </root>
        </mxGraphModel>
    </diagram>
</mxfile>